<svg width="705" height="740" viewBox="0 0 705 740" fill="none" xmlns="http://www.w3.org/2000/svg">
<path d="M352.98 740C301.647 740 254.647 731 211.98 713C169.314 694.333 132.314 668.333 100.98 635C69.6471 601.667 44.9805 562.333 26.9805 517C9.64714 471.667 0.98047 421.667 0.98047 367C0.98047 295 15.9805 231.333 45.9805 176C75.9805 120.667 117.314 77.6666 169.98 47C223.314 15.6666 283.98 -1.90735e-05 351.98 -1.90735e-05C421.314 -1.90735e-05 482.314 15.6666 534.98 47C587.647 77.6666 628.98 120.667 658.981 176C689.647 231.333 704.981 295.333 704.981 368C704.981 422 695.981 472 677.98 518C660.647 563.333 636.314 602.667 604.98 636C573.647 668.667 536.314 694.333 492.98 713C450.314 731 403.647 740 352.98 740ZM351.98 650C399.98 650 442.314 638 478.98 614C515.647 589.333 544.314 555.667 564.981 513C586.314 470.333 596.981 421.333 596.981 366C596.981 311.333 586.647 263.333 565.981 222C545.314 180 516.647 147.667 479.98 125C443.314 101.667 400.647 90 351.98 90C303.314 90 260.647 101.667 223.98 125C187.98 147.667 159.647 179.667 138.98 221C118.98 262.333 108.98 310.667 108.98 366C108.98 422 119.314 471.333 139.98 514C160.647 556.667 188.98 590 224.98 614C261.647 638 303.98 650 351.98 650Z" fill="#1E1E1E"/>
</svg>
