<svg width="1000" height="1000" viewBox="0 0 1000 1000" fill="none" xmlns="http://www.w3.org/2000/svg">
<rect width="1000" height="1000" fill="#1E1E1E"/>
<g clip-path="url(#clip0_1_2)">
<rect width="1000" height="1000" fill="#F5F3F0"/>
<path d="M155.484 555C145.084 555 135.951 552.733 128.084 548.2C120.218 543.533 114.084 537.2 109.684 529.2C105.284 521.067 103.084 511.867 103.084 501.6C103.084 491.2 105.284 482.067 109.684 474.2C114.218 466.333 120.351 460.2 128.084 455.8C135.951 451.267 145.084 449 155.484 449C166.018 449 175.218 451.267 183.084 455.8C190.951 460.2 197.018 466.333 201.284 474.2C205.684 482.067 207.884 491.2 207.884 501.6C207.884 511.867 205.684 521.067 201.284 529.2C197.018 537.2 190.951 543.533 183.084 548.2C175.218 552.733 166.018 555 155.484 555ZM155.484 538C161.751 538 167.151 536.467 171.684 533.4C176.351 530.333 180.018 526.067 182.684 520.6C185.351 515.133 186.684 508.733 186.684 501.4C186.684 490.467 183.751 481.867 177.884 475.6C172.151 469.2 164.684 466 155.484 466C146.418 466 138.951 469.2 133.084 475.6C127.351 482 124.484 490.6 124.484 501.4C124.484 508.733 125.751 515.133 128.284 520.6C130.951 526.067 134.618 530.333 139.284 533.4C144.084 536.467 149.484 538 155.484 538ZM271.648 555C261.915 555 253.248 552.733 245.648 548.2C238.048 543.533 232.048 537.2 227.648 529.2C223.382 521.2 221.248 512.067 221.248 501.8C221.248 491.533 223.382 482.467 227.648 474.6C232.048 466.6 238.048 460.333 245.648 455.8C253.248 451.267 261.848 449 271.448 449C279.582 449 286.848 450.533 293.248 453.6C299.648 456.667 304.915 460.933 309.048 466.4C313.182 471.867 315.848 478.333 317.048 485.8H297.448C296.115 479.8 293.182 475 288.648 471.4C284.248 467.8 278.648 466 271.848 466C265.982 466 260.848 467.467 256.448 470.4C252.048 473.333 248.648 477.467 246.248 482.8C243.848 488.133 242.648 494.467 242.648 501.8C242.648 509 243.848 515.333 246.248 520.8C248.648 526.267 252.048 530.533 256.448 533.6C260.848 536.533 266.048 538 272.048 538C278.582 538 284.115 536.267 288.648 532.8C293.315 529.2 296.315 524.4 297.648 518.4H317.248C315.915 525.733 313.115 532.133 308.848 537.6C304.715 543.067 299.448 547.333 293.048 550.4C286.648 553.467 279.515 555 271.648 555ZM381.452 555C371.185 555 362.118 552.733 354.252 548.2C346.518 543.667 340.452 537.4 336.052 529.4C331.652 521.4 329.452 512.2 329.452 501.8C329.452 491.267 331.585 482.067 335.852 474.2C340.252 466.2 346.385 460 354.252 455.6C362.118 451.2 371.118 449 381.252 449C391.118 449 399.652 451.133 406.852 455.4C414.185 459.533 419.785 465.333 423.652 472.8C427.652 480.267 429.652 489.133 429.652 499.4C429.652 501 429.585 502.533 429.452 504C429.452 505.333 429.318 506.733 429.052 508.2H343.452V492.6H414.452L409.252 498.8C409.252 487.867 406.785 479.533 401.852 473.8C396.918 468.067 390.052 465.2 381.252 465.2C371.785 465.2 364.252 468.467 358.652 475C353.185 481.4 350.452 490.333 350.452 501.8C350.452 513.4 353.185 522.467 358.652 529C364.252 535.533 371.985 538.8 381.852 538.8C387.852 538.8 393.052 537.6 397.452 535.2C401.852 532.667 405.118 529 407.252 524.2H426.852C423.518 533.8 417.852 541.333 409.852 546.8C401.985 552.267 392.518 555 381.452 555ZM512.956 553C512.29 550.467 511.823 547.667 511.556 544.6C511.423 541.533 511.356 537.8 511.356 533.4H510.356V484.8C510.356 478.267 508.69 473.4 505.356 470.2C502.156 466.867 497.023 465.2 489.956 465.2C483.156 465.2 477.69 466.533 473.556 469.2C469.556 471.867 467.223 475.667 466.556 480.6H446.756C447.69 471 452.023 463.333 459.756 457.6C467.49 451.867 477.823 449 490.756 449C504.09 449 514.09 452.133 520.756 458.4C527.423 464.533 530.756 473.6 530.756 485.6V533.4C530.756 536.467 530.956 539.6 531.356 542.8C531.756 546 532.356 549.4 533.156 553H512.956ZM477.756 555C467.356 555 459.09 552.467 452.956 547.4C446.823 542.2 443.756 535.2 443.756 526.4C443.756 517.333 446.956 510.2 453.356 505C459.89 499.667 469.223 496.067 481.356 494.2L514.956 488.8V503.4L484.556 508.2C477.756 509.267 472.623 511.067 469.156 513.6C465.823 516.133 464.156 519.8 464.156 524.6C464.156 529.267 465.69 532.8 468.756 535.2C471.956 537.467 476.556 538.6 482.556 538.6C490.556 538.6 497.156 536.667 502.356 532.8C507.69 528.933 510.356 524.067 510.356 518.2L512.956 533C510.556 540.067 506.29 545.533 500.156 549.4C494.023 553.133 486.556 555 477.756 555ZM558.936 553V451H578.736V475H579.736V553H558.936ZM631.336 553V487.4C631.336 480.333 629.536 475.067 625.936 471.6C622.469 468.133 617.269 466.4 610.336 466.4C604.336 466.4 599.003 467.733 594.336 470.4C589.803 473.067 586.203 476.733 583.536 481.4C581.003 486.067 579.736 491.6 579.736 498L577.136 473.6C580.469 466 585.603 460 592.536 455.6C599.469 451.2 607.536 449 616.736 449C627.669 449 636.269 452.067 642.536 458.2C648.803 464.333 651.936 472.467 651.936 482.6V553H631.336ZM685.3 553V441.2C685.3 430.8 688.233 422.867 694.1 417.4C699.967 411.8 708.967 409 721.1 409H759.9V426H722.9C717.033 426 712.767 427.467 710.1 430.4C707.433 433.2 706.1 437.2 706.1 442.4V553H685.3ZM665.7 468.4V451H727.9V468.4H665.7ZM750.3 553V409H770.9V553H750.3ZM844.352 555C833.952 555 824.818 552.733 816.952 548.2C809.085 543.533 802.952 537.2 798.552 529.2C794.152 521.067 791.952 511.867 791.952 501.6C791.952 491.2 794.152 482.067 798.552 474.2C803.085 466.333 809.218 460.2 816.952 455.8C824.818 451.267 833.952 449 844.352 449C854.885 449 864.085 451.267 871.952 455.8C879.818 460.2 885.885 466.333 890.152 474.2C894.552 482.067 896.752 491.2 896.752 501.6C896.752 511.867 894.552 521.067 890.152 529.2C885.885 537.2 879.818 543.533 871.952 548.2C864.085 552.733 854.885 555 844.352 555ZM844.352 538C850.618 538 856.018 536.467 860.552 533.4C865.218 530.333 868.885 526.067 871.552 520.6C874.218 515.133 875.552 508.733 875.552 501.4C875.552 490.467 872.618 481.867 866.752 475.6C861.018 469.2 853.552 466 844.352 466C835.285 466 827.818 469.2 821.952 475.6C816.218 482 813.352 490.6 813.352 501.4C813.352 508.733 814.618 515.133 817.152 520.6C819.818 526.067 823.485 530.333 828.152 533.4C832.952 536.467 838.352 538 844.352 538Z" fill="#080808"/>
</g>
<defs>
<clipPath id="clip0_1_2">
<rect width="1000" height="1000" fill="white"/>
</clipPath>
</defs>
</svg>
