<svg width="794" height="146" viewBox="0 0 794 146" fill="none" xmlns="http://www.w3.org/2000/svg">
<path d="M52.4844 146C42.0844 146 32.951 143.733 25.0844 139.2C17.2177 134.533 11.0844 128.2 6.68437 120.2C2.28437 112.067 0.084375 102.867 0.084375 92.6C0.084375 82.2 2.28437 73.0667 6.68437 65.2C11.2177 57.3333 17.351 51.2 25.0844 46.8C32.951 42.2667 42.0844 40 52.4844 40C63.0177 40 72.2177 42.2667 80.0844 46.8C87.951 51.2 94.0177 57.3333 98.2844 65.2C102.684 73.0667 104.884 82.2 104.884 92.6C104.884 102.867 102.684 112.067 98.2844 120.2C94.0177 128.2 87.951 134.533 80.0844 139.2C72.2177 143.733 63.0177 146 52.4844 146ZM52.4844 129C58.751 129 64.151 127.467 68.6844 124.4C73.351 121.333 77.0177 117.067 79.6844 111.6C82.351 106.133 83.6844 99.7333 83.6844 92.4C83.6844 81.4667 80.751 72.8667 74.8844 66.6C69.151 60.2 61.6844 57 52.4844 57C43.4177 57 35.951 60.2 30.0844 66.6C24.351 73 21.4844 81.6 21.4844 92.4C21.4844 99.7333 22.751 106.133 25.2844 111.6C27.951 117.067 31.6177 121.333 36.2844 124.4C41.0844 127.467 46.4844 129 52.4844 129ZM168.648 146C158.915 146 150.248 143.733 142.648 139.2C135.048 134.533 129.048 128.2 124.648 120.2C120.382 112.2 118.248 103.067 118.248 92.8C118.248 82.5333 120.382 73.4667 124.648 65.6C129.048 57.6 135.048 51.3333 142.648 46.8C150.248 42.2667 158.848 40 168.448 40C176.582 40 183.848 41.5333 190.248 44.6C196.648 47.6667 201.915 51.9333 206.048 57.4C210.182 62.8667 212.848 69.3333 214.048 76.8H194.448C193.115 70.8 190.182 66 185.648 62.4C181.248 58.8 175.648 57 168.848 57C162.982 57 157.848 58.4667 153.448 61.4C149.048 64.3333 145.648 68.4667 143.248 73.8C140.848 79.1333 139.648 85.4667 139.648 92.8C139.648 100 140.848 106.333 143.248 111.8C145.648 117.267 149.048 121.533 153.448 124.6C157.848 127.533 163.048 129 169.048 129C175.582 129 181.115 127.267 185.648 123.8C190.315 120.2 193.315 115.4 194.648 109.4H214.248C212.915 116.733 210.115 123.133 205.848 128.6C201.715 134.067 196.448 138.333 190.048 141.4C183.648 144.467 176.515 146 168.648 146ZM278.452 146C268.185 146 259.118 143.733 251.252 139.2C243.518 134.667 237.452 128.4 233.052 120.4C228.652 112.4 226.452 103.2 226.452 92.8C226.452 82.2667 228.585 73.0667 232.852 65.2C237.252 57.2 243.385 51 251.252 46.6C259.118 42.2 268.118 40 278.252 40C288.118 40 296.652 42.1333 303.852 46.4C311.185 50.5333 316.785 56.3333 320.652 63.8C324.652 71.2667 326.652 80.1333 326.652 90.4C326.652 92 326.585 93.5333 326.452 95C326.452 96.3333 326.318 97.7333 326.052 99.2H240.452V83.6H311.452L306.252 89.8C306.252 78.8667 303.785 70.5333 298.852 64.8C293.918 59.0667 287.052 56.2 278.252 56.2C268.785 56.2 261.252 59.4667 255.652 66C250.185 72.4 247.452 81.3333 247.452 92.8C247.452 104.4 250.185 113.467 255.652 120C261.252 126.533 268.985 129.8 278.852 129.8C284.852 129.8 290.052 128.6 294.452 126.2C298.852 123.667 302.118 120 304.252 115.2H323.852C320.518 124.8 314.852 132.333 306.852 137.8C298.985 143.267 289.518 146 278.452 146ZM409.956 144C409.29 141.467 408.823 138.667 408.556 135.6C408.423 132.533 408.356 128.8 408.356 124.4H407.356V75.8C407.356 69.2667 405.69 64.4 402.356 61.2C399.156 57.8667 394.023 56.2 386.956 56.2C380.156 56.2 374.69 57.5333 370.556 60.2C366.556 62.8667 364.223 66.6667 363.556 71.6H343.756C344.69 62 349.023 54.3333 356.756 48.6C364.49 42.8667 374.823 40 387.756 40C401.09 40 411.09 43.1333 417.756 49.4C424.423 55.5333 427.756 64.6 427.756 76.6V124.4C427.756 127.467 427.956 130.6 428.356 133.8C428.756 137 429.356 140.4 430.156 144H409.956ZM374.756 146C364.356 146 356.09 143.467 349.956 138.4C343.823 133.2 340.756 126.2 340.756 117.4C340.756 108.333 343.956 101.2 350.356 96C356.89 90.6667 366.223 87.0667 378.356 85.2L411.956 79.8V94.4L381.556 99.2C374.756 100.267 369.623 102.067 366.156 104.6C362.823 107.133 361.156 110.8 361.156 115.6C361.156 120.267 362.69 123.8 365.756 126.2C368.956 128.467 373.556 129.6 379.556 129.6C387.556 129.6 394.156 127.667 399.356 123.8C404.69 119.933 407.356 115.067 407.356 109.2L409.956 124C407.556 131.067 403.29 136.533 397.156 140.4C391.023 144.133 383.556 146 374.756 146ZM455.936 144V42H475.736V66H476.736V144H455.936ZM528.336 144V78.4C528.336 71.3333 526.536 66.0667 522.936 62.6C519.469 59.1333 514.269 57.4 507.336 57.4C501.336 57.4 496.003 58.7333 491.336 61.4C486.803 64.0667 483.203 67.7333 480.536 72.4C478.003 77.0667 476.736 82.6 476.736 89L474.136 64.6C477.469 57 482.603 51 489.536 46.6C496.469 42.2 504.536 40 513.736 40C524.669 40 533.269 43.0667 539.536 49.2C545.803 55.3333 548.936 63.4667 548.936 73.6V144H528.336ZM582.3 144V32.2C582.3 21.8 585.233 13.8667 591.1 8.39999C596.967 2.79999 605.967 -5.72205e-06 618.1 -5.72205e-06H656.9V17H619.9C614.033 17 609.767 18.4667 607.1 21.4C604.433 24.2 603.1 28.2 603.1 33.4V144H582.3ZM562.7 59.4V42H624.9V59.4H562.7ZM647.3 144V-5.72205e-06H667.9V144H647.3ZM741.352 146C730.952 146 721.818 143.733 713.952 139.2C706.085 134.533 699.952 128.2 695.552 120.2C691.152 112.067 688.952 102.867 688.952 92.6C688.952 82.2 691.152 73.0667 695.552 65.2C700.085 57.3333 706.218 51.2 713.952 46.8C721.818 42.2667 730.952 40 741.352 40C751.885 40 761.085 42.2667 768.952 46.8C776.818 51.2 782.885 57.3333 787.152 65.2C791.552 73.0667 793.752 82.2 793.752 92.6C793.752 102.867 791.552 112.067 787.152 120.2C782.885 128.2 776.818 134.533 768.952 139.2C761.085 143.733 751.885 146 741.352 146ZM741.352 129C747.618 129 753.018 127.467 757.552 124.4C762.218 121.333 765.885 117.067 768.552 111.6C771.218 106.133 772.552 99.7333 772.552 92.4C772.552 81.4667 769.618 72.8667 763.752 66.6C758.018 60.2 750.552 57 741.352 57C732.285 57 724.818 60.2 718.952 66.6C713.218 73 710.352 81.6 710.352 92.4C710.352 99.7333 711.618 106.133 714.152 111.6C716.818 117.067 720.485 121.333 725.152 124.4C729.952 127.467 735.352 129 741.352 129Z" fill="white"/>
</svg>
